<svg width="34" height="26" viewBox="0 0 34 26" fill="none" xmlns="http://www.w3.org/2000/svg">
<path d="M29.0657 10.2092C28.2937 8.24141 27.0422 6.57101 25.4616 5.39883C23.8809 4.22665 22.0384 3.6026 20.1556 3.60169C19.3919 3.60876 18.6316 3.72157 17.8915 3.93767C16.9643 2.43799 15.6714 1.2854 14.1748 0.62443C12.6782 -0.036538 11.0446 -0.17645 9.47895 0.22224C7.91326 0.62093 6.48515 1.54047 5.37373 2.86554C4.2623 4.19062 3.51705 5.86222 3.23144 7.67072C2.16572 8.11036 1.26637 8.96058 0.687183 10.076C0.107996 11.1914 -0.115057 12.5027 0.0561635 13.7857C0.227384 15.0687 0.782244 16.2437 1.62587 17.1098C2.46949 17.9759 3.54948 18.4793 4.68116 18.5339H6.31005C6.29307 18.8447 6.29307 19.1564 6.31005 19.4672C6.31005 21.1998 6.9107 22.8614 7.97987 24.0866C9.04904 25.3117 10.4991 26 12.0112 26H26.9481C28.6329 25.9997 30.2619 25.3083 31.5403 24.051C32.8188 22.7937 33.6623 21.0536 33.9182 19.1455C34.174 17.2373 33.8254 15.2873 32.9354 13.6482C32.0453 12.009 30.6726 10.7891 29.0657 10.2092ZM4.68116 14.8008C4.24915 14.8008 3.83483 14.6042 3.52936 14.2542C3.22388 13.9041 3.05226 13.4294 3.05226 12.9343C3.05226 12.4393 3.22388 11.9645 3.52936 11.6145C3.83483 11.2644 4.24915 11.0678 4.68116 11.0678C5.11317 11.0678 5.52748 10.8711 5.83296 10.5211C6.13843 10.1711 6.31005 9.6963 6.31005 9.20127C6.31005 7.71617 6.8249 6.29189 7.74133 5.24177C8.65776 4.19165 9.9007 3.60169 11.1967 3.60169C11.8799 3.60589 12.5546 3.77418 13.1775 4.09567C13.8003 4.41717 14.3575 4.88475 14.8129 5.46822C13.6569 6.33009 12.6732 7.46256 11.9264 8.79118C11.1796 10.1198 10.6867 11.6145 10.48 13.177C9.55932 13.4741 8.71893 14.0326 8.03668 14.8008H4.68116ZM26.9481 22.2669H12.0112C11.3632 22.2669 10.7417 21.972 10.2835 21.4469C9.82526 20.9218 9.56784 20.2097 9.56784 19.4672C9.56784 18.7246 9.82526 18.0125 10.2835 17.4874C10.7417 16.9623 11.3632 16.6674 12.0112 16.6674C12.4432 16.6674 12.8575 16.4707 13.163 16.1207C13.4685 15.7706 13.6401 15.2959 13.6401 14.8008C13.6471 13.0383 14.198 11.3354 15.1954 9.99355C16.1928 8.65173 17.5723 7.75752 19.0898 7.46921C20.6072 7.18089 22.1648 7.51706 23.4868 8.4182C24.8087 9.31935 25.8098 10.7274 26.3129 12.393C26.406 12.7138 26.5733 12.9995 26.7971 13.2198C27.0209 13.44 27.2926 13.5865 27.5834 13.6436C28.508 13.8417 29.3354 14.4261 29.9053 15.2835C30.4752 16.141 30.7469 17.2104 30.6678 18.2844C30.5886 19.3583 30.1643 20.3604 29.4771 21.0962C28.7898 21.8321 27.8886 22.2493 26.9481 22.2669Z" fill="#FFBC71"/>
</svg>
