<svg width="11" height="13" viewBox="0 0 11 13" fill="none" xmlns="http://www.w3.org/2000/svg">
<path d="M5.62402 0.5C4.29794 0.5 3.02617 1.00571 2.08849 1.90588C1.15081 2.80605 0.624023 4.02695 0.624023 5.29998C0.624023 8.53997 5.03027 12.2 5.21777 12.356C5.33098 12.4489 5.47505 12.5 5.62402 12.5C5.77299 12.5 5.91707 12.4489 6.03027 12.356C6.24902 12.2 10.624 8.53997 10.624 5.29998C10.624 4.02695 10.0972 2.80605 9.15956 1.90588C8.22188 1.00571 6.95011 0.5 5.62402 0.5ZM5.62402 11.09C4.29277 9.88997 1.87402 7.30398 1.87402 5.29998C1.87402 4.34521 2.26911 3.42954 2.97237 2.75441C3.67563 2.07928 4.62946 1.7 5.62402 1.7C6.61859 1.7 7.57241 2.07928 8.27567 2.75441C8.97894 3.42954 9.37402 4.34521 9.37402 5.29998C9.37402 7.30398 6.95527 9.89597 5.62402 11.09ZM5.62402 2.89999C5.12957 2.89999 4.64622 3.04075 4.2351 3.30446C3.82398 3.56818 3.50354 3.94301 3.31432 4.38155C3.12511 4.82009 3.0756 5.30265 3.17206 5.7682C3.26852 6.23375 3.50663 6.66139 3.85626 6.99704C4.20589 7.33268 4.65135 7.56126 5.1363 7.65386C5.62125 7.74647 6.12392 7.69894 6.58073 7.51729C7.03755 7.33564 7.42799 7.02803 7.7027 6.63335C7.9774 6.23867 8.12402 5.77466 8.12402 5.29998C8.12402 4.66347 7.86063 4.05302 7.39179 3.60293C6.92295 3.15285 6.28706 2.89999 5.62402 2.89999ZM5.62402 6.49998C5.3768 6.49998 5.13512 6.4296 4.92956 6.29774C4.724 6.16589 4.56378 5.97847 4.46917 5.7592C4.37456 5.53993 4.34981 5.29865 4.39804 5.06588C4.44627 4.8331 4.56532 4.61928 4.74014 4.45146C4.91496 4.28364 5.13768 4.16935 5.38016 4.12305C5.62264 4.07674 5.87397 4.10051 6.10238 4.19133C6.33079 4.28216 6.52601 4.43596 6.66336 4.6333C6.80071 4.83064 6.87402 5.06265 6.87402 5.29998C6.87402 5.61824 6.74233 5.92347 6.50791 6.14851C6.27349 6.37355 5.95554 6.49998 5.62402 6.49998Z" fill="#5C92FF"/>
</svg>
