<svg width="19" height="20" viewBox="0 0 19 20" fill="none" xmlns="http://www.w3.org/2000/svg">
<path d="M6.5 5.75077C6.5 3.00077 3.92 1.24078 3.81 1.17078C3.64463 1.059 3.4496 0.999268 3.25 0.999268C3.0504 0.999268 2.85537 1.059 2.69 1.17078C2.58 1.25078 0 3.00077 0 5.75077C0 6.61273 0.34241 7.43938 0.951903 8.04887C1.5614 8.65837 2.38805 9.00078 3.25 9.00078C4.11195 9.00078 4.9386 8.65837 5.5481 8.04887C6.15759 7.43938 6.5 6.61273 6.5 5.75077ZM3.25 7.00077C2.91848 7.00077 2.60054 6.86908 2.36612 6.63466C2.1317 6.40024 2 6.0823 2 5.75077C2.08229 4.80265 2.53065 3.92387 3.25 3.30078C3.97364 3.9205 4.42296 4.80116 4.5 5.75077C4.5 6.0823 4.3683 6.40024 4.13388 6.63466C3.89946 6.86908 3.58152 7.00077 3.25 7.00077ZM9.31 8.17078C9.14463 8.059 8.9496 7.99927 8.75 7.99927C8.5504 7.99927 8.35537 8.059 8.19 8.17078C8.02 8.29078 4 11.0708 4 15.2508C4 16.5106 4.50045 17.7187 5.39124 18.6095C6.28204 19.5003 7.49022 20.0008 8.75 20.0008C10.0098 20.0008 11.218 19.5003 12.1088 18.6095C12.9996 17.7187 13.5 16.5106 13.5 15.2508C13.5 11.0008 9.5 8.28078 9.31 8.17078ZM8.75 18.0008C8.38886 18.0008 8.03127 17.9296 7.69762 17.7914C7.36398 17.6532 7.06082 17.4507 6.80546 17.1953C6.5501 16.94 6.34753 16.6368 6.20933 16.3032C6.07113 15.9695 6 15.6119 6 15.2508C6 12.9408 7.81 11.0808 8.76 10.2508C9.7 11.0408 11.5 12.8808 11.5 15.2508C11.5 15.6119 11.4289 15.9695 11.2907 16.3032C11.1525 16.6368 10.9499 16.94 10.6945 17.1953C10.4392 17.4507 10.136 17.6532 9.80238 17.7914C9.46873 17.9296 9.11114 18.0008 8.75 18.0008ZM15.56 0.170775C15.3946 0.0589991 15.1996 -0.000732422 15 -0.000732422C14.8004 -0.000732422 14.6054 0.0589991 14.44 0.170775C14.3 0.270775 11 2.55077 11 6.00077C11 7.06164 11.4214 8.07906 12.1716 8.8292C12.9217 9.57935 13.9391 10.0008 15 10.0008C16.0609 10.0008 17.0783 9.57935 17.8284 8.8292C18.5786 8.07906 19 7.06164 19 6.00077C19 2.51077 15.7 0.260775 15.56 0.170775ZM15 8.00078C14.4696 8.00078 13.9609 7.79006 13.5858 7.41499C13.2107 7.03992 13 6.53121 13 6.00077C13.0685 5.27869 13.2808 4.57761 13.6242 3.93876C13.9677 3.29991 14.4355 2.73619 15 2.28078C15.5666 2.73425 16.0359 3.29749 16.3795 3.93672C16.7232 4.57595 16.9343 5.278 17 6.00077C17 6.53121 16.7893 7.03992 16.4142 7.41499C16.0391 7.79006 15.5304 8.00078 15 8.00078Z" fill="#A377FF"/>
</svg>
