<svg width="34" height="26" viewBox="0 0 34 26" fill="none" xmlns="http://www.w3.org/2000/svg">
<path d="M33.8581 12.35C30.4253 4.72875 23.9676 0 17 0C10.0324 0 3.57468 4.72875 0.141875 12.35C0.0482996 12.555 0 12.7763 0 13C0 13.2237 0.0482996 13.445 0.141875 13.65C3.57468 21.2712 10.0324 26 17 26C23.9676 26 30.4253 21.2712 33.8581 13.65C33.9517 13.445 34 13.2237 34 13C34 12.7763 33.9517 12.555 33.8581 12.35ZM17 22.75C11.6129 22.75 6.51465 19.0287 3.57468 13C6.51465 6.97125 11.6129 3.25 17 3.25C22.3871 3.25 27.4853 6.97125 30.4253 13C27.4853 19.0287 22.3871 22.75 17 22.75ZM17 6.5C15.6556 6.5 14.3413 6.88122 13.2234 7.59545C12.1056 8.30968 11.2343 9.32484 10.7198 10.5126C10.2053 11.7003 10.0707 13.0072 10.333 14.2681C10.5953 15.529 11.2427 16.6872 12.1933 17.5962C13.144 18.5052 14.3552 19.1243 15.6738 19.3751C16.9925 19.6259 18.3592 19.4972 19.6013 19.0052C20.8434 18.5132 21.9051 17.6801 22.652 16.6112C23.399 15.5423 23.7976 14.2856 23.7976 13C23.7976 11.2761 23.0815 9.62279 21.8067 8.40381C20.5318 7.18482 18.8028 6.5 17 6.5ZM17 16.25C16.3278 16.25 15.6707 16.0594 15.1117 15.7023C14.5528 15.3452 14.1172 14.8376 13.8599 14.2437C13.6027 13.6499 13.5353 12.9964 13.6665 12.366C13.7976 11.7355 14.1213 11.1564 14.5967 10.7019C15.072 10.2474 15.6776 9.93785 16.3369 9.81245C16.9962 9.68705 17.6796 9.75141 18.3007 9.99739C18.9217 10.2434 19.4525 10.6599 19.826 11.1944C20.1995 11.7289 20.3988 12.3572 20.3988 13C20.3988 13.862 20.0407 14.6886 19.4033 15.2981C18.7659 15.9076 17.9014 16.25 17 16.25Z" fill="#82ACFF"/>
</svg>
