<svg width="29" height="28" viewBox="0 0 29 28" fill="none" xmlns="http://www.w3.org/2000/svg">
<path fill-rule="evenodd" clip-rule="evenodd" d="M16.4357 0V2.43513H18.4357V0H16.4357ZM28.7996 10.3639H26.3645L26.3645 12.3639H28.7996V10.3639ZM24.6683 6.03351L26.7772 4.81594L27.7772 6.54799L25.6683 7.76556L24.6683 6.03351ZM22.2517 1.02245L21.0341 3.13133L22.7662 4.13133L23.9837 2.02245L22.2517 1.02245ZM12.1053 4.13133L10.8877 2.02245L12.6197 1.02245L13.8373 3.13133L12.1053 4.13133ZM22.9531 11.3638C22.9531 12.5604 22.5762 13.6689 21.9346 14.5772C22.656 14.632 23.3427 14.8111 23.9732 15.0931C24.597 13.9922 24.9531 12.7196 24.9531 11.3638C24.9531 7.17971 21.5613 3.78784 17.3772 3.78784C14.3727 3.78784 11.7767 5.53678 10.5518 8.07211L10.5606 8.0721C11.2985 8.0721 12.0165 8.15743 12.7053 8.31877C13.7006 6.79489 15.4213 5.78784 17.3772 5.78784C20.4567 5.78784 22.9531 8.28428 22.9531 11.3638Z" fill="url(#paint0_linear_22_41)"/>
<path fill-rule="evenodd" clip-rule="evenodd" d="M11.2998 26L11.3409 25.9999V26L11.4969 26L21.7971 26H21.7998C21.8012 26 21.8026 26 21.8041 26C24.4981 25.9976 26.7998 23.7147 26.7998 20.75C26.7998 17.7838 24.4957 15.5 21.7998 15.5C21.0696 15.5 20.3682 15.6675 19.7335 15.9708C19.6472 15.2839 19.4848 14.6218 19.2553 13.9939L19.2575 13.993C18.0367 10.6095 14.8971 8.25 11.2998 8.25C6.67096 8.25 2.7998 12.1567 2.7998 17.125C2.7998 22.0933 6.67096 26 11.2998 26ZM22.0412 27.9958C25.7954 27.864 28.7998 24.6704 28.7998 20.75C28.7998 16.7459 25.6658 13.5 21.7998 13.5C21.6015 13.5 21.4051 13.5085 21.2109 13.5253C19.7764 9.28826 15.8807 6.25 11.2998 6.25C5.50081 6.25 0.799805 11.1189 0.799805 17.125C0.799805 23.1311 5.50081 28 11.2998 28C11.3656 28 11.4313 27.9994 11.4969 27.9981V28H21.7947C21.7964 28 21.7981 28 21.7998 28C21.8015 28 21.8032 28 21.8049 28H22.0412V27.9958Z" fill="url(#paint1_linear_22_41)"/>
<defs>
<linearGradient id="paint0_linear_22_41" x1="19.6757" y1="0" x2="19.6757" y2="15.0931" gradientUnits="userSpaceOnUse">
<stop stop-color="#EFC977"/>
<stop offset="1" stop-color="#E07256"/>
</linearGradient>
<linearGradient id="paint1_linear_22_41" x1="14.7998" y1="6.25" x2="14.7998" y2="28" gradientUnits="userSpaceOnUse">
<stop stop-color="#B2D4F7"/>
<stop offset="1" stop-color="#D9E2F3"/>
</linearGradient>
</defs>
</svg>
