<svg width="29" height="29" viewBox="0 0 29 29" fill="none" xmlns="http://www.w3.org/2000/svg">
<path fill-rule="evenodd" clip-rule="evenodd" d="M22.2002 21.9572C25.5752 21.57 28.2002 18.6028 28.2002 15C28.2002 11.134 25.1778 8.00001 21.4495 8.00001C21.3056 8.00001 21.1628 8.00467 21.0212 8.01387C19.7663 3.38976 15.6691 0 10.8085 0C4.94969 0 0.200195 4.92487 0.200195 11C0.200195 16.1419 3.60257 20.4598 8.2002 21.665V19.5772C4.7528 18.4291 2.2002 15.0657 2.2002 11C2.2002 5.96046 6.12199 2 10.8085 2C14.7841 2 18.2093 4.85004 19.1571 8.79115L19.1601 8.78992C19.2939 9.33674 19.3792 9.90367 19.411 10.4855C20.0341 10.1732 20.7274 10 21.4495 10C24.0055 10 26.2002 12.1696 26.2002 15C26.2002 17.5486 24.4207 19.5615 22.2002 19.937V21.9572ZM11.7023 26.0021C11.9444 26.0021 12.2024 25.7921 12.2023 25.456C12.2023 25.272 12.1391 24.9263 11.9437 24.4168C11.8658 24.2136 11.7748 24.0045 11.6746 23.7938C11.3755 24.4437 11.2017 25.0277 11.2019 25.456C11.202 25.7921 11.4601 26.0021 11.7023 26.0021ZM10.4925 21.7572C11.1031 20.7302 11.7004 20 11.7004 20C11.7004 20 12.27 20.7554 12.8657 21.7778C13.5182 22.8977 14.202 24.3379 14.2023 25.456C14.2027 26.8622 13.0837 28.0021 11.7029 28.0021C10.322 28.0021 9.2023 26.8622 9.20187 25.456C9.20149 24.229 9.85421 22.8309 10.4925 21.7572ZM18.2023 22.456C18.2024 22.7921 17.9444 23.0021 17.7023 23.0021C17.4601 23.0021 17.202 22.7921 17.2019 22.456C17.2017 22.0277 17.3755 21.4437 17.6746 20.7938C17.7748 21.0045 17.8658 21.2136 17.9437 21.4168C18.1391 21.9263 18.2023 22.272 18.2023 22.456ZM17.7004 17C17.7004 17 17.1031 17.7302 16.4925 18.7572C15.8542 19.8309 15.2015 21.229 15.2019 22.456C15.2023 23.8622 16.322 25.0021 17.7029 25.0021C19.0837 25.0021 20.2027 23.8622 20.2023 22.456C20.202 21.3379 19.5182 19.8977 18.8657 18.7778C18.27 17.7554 17.7004 17 17.7004 17Z" fill="url(#paint0_linear_22_127)"/>
<defs>
<linearGradient id="paint0_linear_22_127" x1="14.2002" y1="0" x2="14.2002" y2="28.0021" gradientUnits="userSpaceOnUse">
<stop stop-color="#95B6F6"/>
<stop offset="1" stop-color="#5193DE"/>
</linearGradient>
</defs>
</svg>
