<svg width="29" height="28" viewBox="0 0 29 28" fill="none" xmlns="http://www.w3.org/2000/svg">
<path fill-rule="evenodd" clip-rule="evenodd" d="M0.400391 11C0.400391 15.3628 2.84977 19.1323 6.40039 20.9107V18.6003C4.01058 17.0152 2.40039 14.2291 2.40039 11C2.40039 5.96046 6.32219 2 11.0087 2C14.9843 2 18.4095 4.85004 19.3572 8.79115L19.3603 8.78992C19.4941 9.33674 19.5794 9.90367 19.6112 10.4855C20.2343 10.1732 20.9276 10 21.6497 10C24.2057 10 26.4004 12.1696 26.4004 15C26.4004 16.7105 25.5988 18.1797 24.4004 19.0745V21.3944C26.7576 20.3025 28.4004 17.8501 28.4004 15C28.4004 11.134 25.378 8.00001 21.6497 8.00001C21.5058 8.00001 21.363 8.00467 21.2214 8.01387C19.9665 3.38976 15.8693 0 11.0087 0C5.14988 0 0.400391 4.92487 0.400391 11ZM17.1194 18.2026C17.329 18.3237 17.6575 18.2708 17.8255 17.9798C17.9175 17.8204 18.0357 17.4894 18.1213 16.9505C18.1555 16.7357 18.1812 16.5091 18.1999 16.2764C17.6158 16.6896 17.1733 17.1085 16.9592 17.4795C16.7912 17.7705 16.9097 18.0815 17.1194 18.2026ZM18.1948 13.9217C19.2371 13.3377 20.1196 13.0042 20.1196 13.0042C20.1196 13.0042 20.2351 13.9432 20.2396 15.1264C20.2445 16.4226 20.1163 18.0116 19.5574 18.9801C18.8545 20.198 17.3154 20.6254 16.1196 19.9348C14.9239 19.2442 14.5244 17.6971 15.2273 16.4792C15.8406 15.4164 17.1051 14.5323 18.1948 13.9217ZM10.5165 19.2203C10.7262 19.3414 11.0547 19.2885 11.2226 18.9975C11.3146 18.8381 11.4329 18.5071 11.5185 17.9682C11.5526 17.7534 11.5784 17.5268 11.597 17.2941C11.013 17.7073 10.5704 18.1262 10.3563 18.4972C10.1883 18.7882 10.3068 19.0992 10.5165 19.2203ZM11.5919 14.9394C12.6343 14.3554 13.5168 14.0218 13.5168 14.0218C13.5168 14.0218 13.6322 14.9609 13.6367 16.1441C13.6417 17.4402 13.5135 19.0293 12.9545 19.9978C12.2516 21.2157 10.7125 21.6431 9.51678 20.9525C8.32104 20.2619 7.92152 18.7148 8.62441 17.4969C9.23778 16.4341 10.5022 15.5499 11.5919 14.9394ZM20.0797 24.1129C19.9117 24.4039 19.5833 24.4567 19.3736 24.3356C19.1639 24.2145 19.0454 23.9035 19.2134 23.6125C19.4275 23.2415 19.87 22.8227 20.4541 22.4095C20.4354 22.6421 20.4097 22.8687 20.3756 23.0836C20.2899 23.6225 20.1717 23.9535 20.0797 24.1129ZM22.3738 19.1372C22.3738 19.1372 21.4913 19.4708 20.449 20.0548C19.3593 20.6653 18.0948 21.5495 17.4815 22.6122C16.7786 23.8301 17.1781 25.3772 18.3738 26.0678C19.5696 26.7584 21.1087 26.331 21.8116 25.1131C22.3705 24.1447 22.4987 22.5556 22.4938 21.2594C22.4893 20.0763 22.3738 19.1372 22.3738 19.1372ZM12.6552 25.9375C12.8649 26.0586 13.1934 26.0058 13.3614 25.7147C13.4534 25.5554 13.5716 25.2244 13.6572 24.6855C13.6914 24.4706 13.7171 24.244 13.7358 24.0113C13.1517 24.4246 12.7092 24.8434 12.495 25.2144C12.3271 25.5054 12.4456 25.8164 12.6552 25.9375ZM13.7307 21.6566C14.773 21.0727 15.6555 20.7391 15.6555 20.7391C15.6555 20.7391 15.771 21.6781 15.7755 22.8613C15.7804 24.1575 15.6522 25.7466 15.0933 26.715C14.3904 27.9329 12.8512 28.3603 11.6555 27.6697C10.4598 26.9791 10.0603 25.432 10.7631 24.2141C11.3765 23.1514 12.6409 22.2672 13.7307 21.6566Z" fill="url(#paint0_linear_22_492)"/>
<defs>
<linearGradient id="paint0_linear_22_492" x1="14.4004" y1="0" x2="14.4004" y2="28" gradientUnits="userSpaceOnUse">
<stop stop-color="#95B6F6"/>
<stop offset="1" stop-color="#5193DE"/>
</linearGradient>
</defs>
</svg>
